<svg width="291" height="173" viewBox="0 0 291 173" fill="none" xmlns="http://www.w3.org/2000/svg">
<path d="M61.2 136.088C51.3013 136.088 42.4267 133.827 34.576 129.304C26.8107 124.696 20.752 118.637 16.4 111.128C12.1333 103.533 10 95.512 10 87.064C10 78.5307 12.048 70.3387 16.144 62.488C20.24 54.552 26.1707 48.1093 33.936 43.16C41.7013 38.2107 50.7893 35.736 61.2 35.736C71.3547 35.736 80.272 38.0827 87.952 42.776C95.632 47.4693 101.52 53.7413 105.616 61.592C109.712 69.3573 111.76 77.848 111.76 87.064C111.76 95.256 109.712 103.149 105.616 110.744C101.605 118.253 95.76 124.355 88.08 129.048C80.4 133.741 71.44 136.088 61.2 136.088ZM61.328 119.192C67.728 119.192 73.4453 117.869 78.48 115.224C83.6 112.493 87.568 108.696 90.384 103.832C93.2853 98.883 94.736 93.293 94.736 87.064C94.736 80.4933 93.3707 74.6053 90.64 69.4C87.9093 64.1947 83.984 60.0987 78.864 57.112C73.744 54.04 67.6853 52.504 60.688 52.504C54.288 52.504 48.5707 54.04 43.536 57.112C38.5867 60.0987 34.704 64.2373 31.888 69.528C29.072 74.8187 27.664 80.664 27.664 87.064C27.664 93.72 29.2853 99.48 32.528 104.344C35.856 109.208 40.08 112.92 45.2 115.48C50.4053 117.955 55.7813 119.192 61.328 119.192ZM152.175 141.592L199.535 31H215.151L167.791 141.592H152.175ZM269.068 135.448C265.911 135.448 263.265 134.424 261.132 132.376C259.084 130.243 258.06 127.597 258.06 124.44C258.06 121.453 259.127 118.936 261.26 116.888C263.393 114.755 265.996 113.688 269.068 113.688C272.055 113.688 274.572 114.755 276.62 116.888C278.753 118.936 279.82 121.453 279.82 124.44C279.82 127.597 278.753 130.243 276.62 132.376C274.572 134.424 272.055 135.448 269.068 135.448Z" fill="white"/>
</svg>
